<svg width="50" height="50" viewBox="0 0 100 100" fill="none" xmlns="http://www.w3.org/2000/svg">
<path d="M3.11747 69.2712C5.88503 47.002 17.421 39.8592 27.7505 33.5301C38.2981 27.0646 47.421 21.4017 46.3236 0.125199C41.5122 0.463514 36.775 1.47837 32.2563 3.13884C32.7153 20.0246 24.5853 25.0324 16.6962 29.8681C8.36401 34.9743 0.49307 39.7988 0 58.8375C0.658941 62.4614 1.70643 65.9602 3.11747 69.2712Z" fill="#2F2F2F"/>
<path d="M14.2922 26.072C21.6451 21.5627 27.5915 17.8739 27.7255 5.05924C14.3422 11.5135 4.25358 23.5882 0.643036 38.1377C4.34901 32.1708 9.50011 29.0074 14.2922 26.072ZM15.6351 86.7941C17.4256 63.0606 28.0095 54.7776 38.2731 46.7583C49.4229 38.0483 59.9591 29.7943 59.3661 0.838364C56.5592 0.324756 53.7135 0.0443136 50.8589 0C52.0359 23.8341 40.9361 30.7154 30.1522 37.3239C19.2274 44.0197 7.95274 50.9703 7.08475 76.7181C9.47566 80.4296 12.3502 83.817 15.6351 86.7941ZM70.0568 60.6998C80.2409 52.6582 89.8478 45.0034 89.3342 18.3188C86.5887 15.0308 83.431 12.0981 79.9364 9.59088C79.7932 38.7436 68.2754 47.856 57.112 56.6689C46.6053 64.9653 36.6871 72.8147 35.96 98.0617C40.15 99.2466 44.5558 99.9195 49.1093 100C50.3067 76.3626 60.3295 68.3836 70.0568 60.6998ZM87.1256 71.129C79.8319 75.5019 73.506 79.336 72.7698 94.7127C86.7553 87.7979 97.0643 74.7239 100 59.1214C96.7235 65.3678 91.7541 68.3546 87.1256 71.129Z" fill="#2F2F2F"/>
<path d="M84.7626 67.3128C92.5744 62.6269 99.9568 58.2048 99.057 37.6436L99.2911 37.6347C98.1011 33.0558 96.2526 28.6677 93.8014 24.6032C92.7267 48.4574 82.6789 56.4699 72.9062 64.1874C63.606 71.5247 54.833 78.5155 53.6719 99.8748C58.6293 99.5298 63.5079 98.4676 68.1504 96.7226C68.4276 77.1071 77.1029 71.9048 84.7626 67.3128ZM54.2718 53.1813C65.4397 44.3662 75.9918 36.0161 75.3738 6.66667C71.7753 4.62039 67.9344 3.01804 63.9377 1.89582C64.2627 32.1663 52.4926 41.3593 41.0998 50.2593C30.7248 58.3635 20.9339 66.0631 20 90.3264C23.5412 92.8857 27.4052 94.9816 31.4951 96.5616C32.6176 70.3488 43.6105 61.5985 54.2718 53.1813Z" fill="#2F2F2F"/>
</svg>
