<svg width="29" height="36" viewBox="0 0 14 21" fill="none" xmlns="http://www.w3.org/2000/svg">
<path fill-rule="evenodd" clip-rule="evenodd" d="M9 6C9 7.10457 8.10457 8 7 8C5.89543 8 5 7.10457 5 6C5 4.89543 5.89543 4 7 4C8.10457 4 9 4.89543 9 6ZM7.5 6C7.5 5.72386 7.27614 5.5 7 5.5C6.72386 5.5 6.5 5.72386 6.5 6C6.5 6.27614 6.72386 6.5 7 6.5C7.27614 6.5 7.5 6.27614 7.5 6Z" fill="black"/>
<path fill-rule="evenodd" clip-rule="evenodd" d="M3 14C3 11.7909 4.79086 10 7 10C9.20914 10 11 11.7909 11 14C11 16.2091 9.20914 18 7 18C4.79086 18 3 16.2091 3 14ZM4.5 14C4.5 15.3807 5.61929 16.5 7 16.5C8.38071 16.5 9.5 15.3807 9.5 14C9.5 12.6193 8.38071 11.5 7 11.5C5.61929 11.5 4.5 12.6193 4.5 14Z" fill="black"/>
<path fill-rule="evenodd" clip-rule="evenodd" d="M10 0H4C1.79086 0 0 1.79086 0 4V17C0 19.2091 1.79086 21 4 21H10C12.2091 21 14 19.2091 14 17V4C14 1.79086 12.2091 0 10 0ZM12.5 17C12.5 18.3807 11.3807 19.5 10 19.5H4C2.61929 19.5 1.5 18.3807 1.5 17V4C1.5 2.61929 2.61929 1.5 4 1.5H10C11.3807 1.5 12.5 2.61929 12.5 4V17Z" fill="black"/>
</svg>
